<svg width="1130" height="512" viewBox="0 0 1130 512" fill="none" xmlns="http://www.w3.org/2000/svg">
<rect y="79.2539" width="353.492" height="353.492" rx="50" fill="#C15F3C"/>
<path d="M287.108 226.459C273.197 226.459 261.312 235.291 256.76 247.641H225.709C220.971 247.641 216.75 250.636 215.186 255.111L202.54 291.281L166.13 182.782C164.606 178.24 160.352 175.18 155.562 175.18C150.772 175.18 146.516 178.24 144.995 182.782L108.584 291.278L95.9408 255.111C94.3772 250.639 90.1562 247.641 85.4181 247.641H45.2014C39.0439 247.641 34.0547 252.633 34.0547 258.788C34.0547 264.945 39.0464 269.934 45.2014 269.934H77.5055L98.2775 329.352C99.8511 333.849 104.109 336.869 108.87 336.82C113.635 336.79 117.854 333.735 119.368 329.218L155.562 221.363L191.759 329.22C193.276 333.737 197.494 336.792 202.257 336.82C202.282 336.82 202.304 336.82 202.327 336.82C207.062 336.82 211.286 333.827 212.849 329.349L233.621 269.932H256.76C261.312 282.282 273.197 291.112 287.108 291.112C304.934 291.112 319.437 276.609 319.437 258.783C319.437 240.961 304.934 226.459 287.108 226.459ZM287.108 268.821C281.577 268.821 277.075 264.319 277.075 258.788C277.075 253.254 281.577 248.755 287.108 248.755C292.641 248.755 297.141 253.257 297.141 258.788C297.141 264.321 292.639 268.821 287.108 268.821Z" fill="white"/>
<path d="M554.969 299.945C554.969 295.413 554.258 291.414 552.836 287.948C551.503 284.394 549.104 281.194 545.638 278.351C542.261 275.507 537.551 272.796 531.508 270.219C525.554 267.642 518 265.021 508.847 262.354C499.25 259.511 490.585 256.356 482.854 252.89C475.122 249.335 468.501 245.292 462.992 240.76C457.482 236.228 453.261 231.029 450.328 225.164C447.396 219.298 445.929 212.589 445.929 205.035C445.929 197.481 447.484 190.505 450.595 184.107C453.705 177.708 458.148 172.154 463.925 167.444C469.79 162.646 476.766 158.913 484.853 156.247C492.94 153.581 501.96 152.248 511.913 152.248C526.487 152.248 538.84 155.047 548.971 160.646C559.19 166.156 566.966 173.398 572.298 182.374C577.63 191.261 580.296 200.77 580.296 210.9H554.703C554.703 203.613 553.147 197.17 550.037 191.572C546.927 185.884 542.217 181.441 535.907 178.242C529.598 174.954 521.6 173.31 511.913 173.31C502.76 173.31 495.206 174.687 489.252 177.442C483.298 180.197 478.854 183.929 475.922 188.639C473.078 193.349 471.656 198.726 471.656 204.769C471.656 208.856 472.5 212.589 474.189 215.966C475.966 219.254 478.677 222.32 482.32 225.164C486.053 228.007 490.763 230.629 496.45 233.028C502.227 235.428 509.114 237.738 517.112 239.96C528.131 243.07 537.64 246.536 545.638 250.357C553.636 254.179 560.212 258.489 565.367 263.288C570.61 267.998 574.476 273.374 576.964 279.417C579.541 285.371 580.83 292.125 580.83 299.679C580.83 307.588 579.23 314.742 576.031 321.14C572.832 327.539 568.255 333.004 562.301 337.536C556.347 342.068 549.193 345.579 540.839 348.067C532.575 350.466 523.333 351.666 513.113 351.666C504.137 351.666 495.295 350.422 486.586 347.934C477.966 345.445 470.101 341.713 462.992 336.736C455.971 331.76 450.328 325.628 446.062 318.341C441.886 310.965 439.797 302.434 439.797 292.747H465.391C465.391 299.412 466.68 305.144 469.257 309.943C471.834 314.653 475.344 318.563 479.788 321.673C484.32 324.784 489.43 327.094 495.117 328.605C500.894 330.027 506.892 330.738 513.113 330.738C522.088 330.738 529.687 329.494 535.907 327.005C542.128 324.517 546.838 320.962 550.037 316.341C553.325 311.72 554.969 306.255 554.969 299.945ZM667.608 331.404C673.474 331.404 678.895 330.205 683.871 327.805C688.848 325.406 692.936 322.118 696.135 317.941C699.334 313.675 701.156 308.832 701.6 303.411H725.061C724.617 311.942 721.729 319.896 716.396 327.272C711.153 334.559 704.266 340.469 695.735 345.001C687.204 349.444 677.828 351.666 667.608 351.666C656.767 351.666 647.302 349.755 639.215 345.934C631.217 342.113 624.552 336.87 619.22 330.205C613.977 323.54 610.022 315.897 607.356 307.277C604.779 298.568 603.491 289.37 603.491 279.684V274.085C603.491 264.398 604.779 255.245 607.356 246.625C610.022 237.916 613.977 230.229 619.22 223.564C624.552 216.899 631.217 211.656 639.215 207.834C647.302 204.013 656.767 202.103 667.608 202.103C678.895 202.103 688.759 204.413 697.201 209.034C705.644 213.566 712.264 219.787 717.063 227.696C721.951 235.517 724.617 244.403 725.061 254.356H701.6C701.156 248.402 699.467 243.026 696.535 238.227C693.691 233.428 689.781 229.607 684.804 226.763C679.917 223.831 674.185 222.364 667.608 222.364C660.055 222.364 653.701 223.875 648.546 226.896C643.481 229.829 639.438 233.828 636.416 238.894C633.483 243.87 631.351 249.424 630.018 255.556C628.773 261.599 628.151 267.775 628.151 274.085V279.684C628.151 285.993 628.773 292.214 630.018 298.346C631.262 304.478 633.35 310.032 636.283 315.008C639.304 319.985 643.348 323.984 648.413 327.005C653.567 329.938 659.966 331.404 667.608 331.404ZM746.256 278.484V275.418C746.256 265.021 747.767 255.378 750.788 246.492C753.81 237.516 758.164 229.74 763.852 223.164C769.539 216.499 776.426 211.345 784.513 207.701C792.6 203.969 801.665 202.103 811.707 202.103C821.837 202.103 830.946 203.969 839.033 207.701C847.209 211.345 854.141 216.499 859.828 223.164C865.604 229.74 870.003 237.516 873.025 246.492C876.046 255.378 877.557 265.021 877.557 275.418V278.484C877.557 288.881 876.046 298.523 873.025 307.41C870.003 316.297 865.604 324.073 859.828 330.738C854.141 337.314 847.253 342.468 839.167 346.201C831.168 349.844 822.104 351.666 811.973 351.666C801.842 351.666 792.733 349.844 784.646 346.201C776.56 342.468 769.628 337.314 763.852 330.738C758.164 324.073 753.81 316.297 750.788 307.41C747.767 298.523 746.256 288.881 746.256 278.484ZM770.917 275.418V278.484C770.917 285.682 771.761 292.48 773.449 298.879C775.138 305.188 777.67 310.787 781.047 315.675C784.513 320.562 788.823 324.428 793.978 327.272C799.132 330.027 805.13 331.404 811.973 331.404C818.727 331.404 824.637 330.027 829.702 327.272C834.856 324.428 839.122 320.562 842.499 315.675C845.876 310.787 848.409 305.188 850.097 298.879C851.875 292.48 852.763 285.682 852.763 278.484V275.418C852.763 268.309 851.875 261.599 850.097 255.29C848.409 248.891 845.832 243.248 842.366 238.36C838.989 233.384 834.723 229.474 829.569 226.63C824.503 223.786 818.549 222.364 811.707 222.364C804.953 222.364 798.999 223.786 793.844 226.63C788.779 229.474 784.513 233.384 781.047 238.36C777.67 243.248 775.138 248.891 773.449 255.29C771.761 261.599 770.917 268.309 770.917 275.418ZM996.728 315.675V204.769H1021.52V349H997.928L996.728 315.675ZM1001.39 285.282L1011.66 285.016C1011.66 294.613 1010.64 303.5 1008.59 311.676C1006.64 319.763 1003.44 326.783 998.994 332.737C994.551 338.691 988.73 343.357 981.532 346.734C974.333 350.022 965.58 351.666 955.271 351.666C948.251 351.666 941.808 350.644 935.943 348.6C930.167 346.556 925.19 343.401 921.013 339.136C916.836 334.87 913.593 329.316 911.282 322.473C909.061 315.63 907.95 307.41 907.95 297.812V204.769H932.61V298.079C932.61 304.566 933.321 309.943 934.743 314.208C936.254 318.385 938.253 321.718 940.742 324.206C943.319 326.605 946.163 328.294 949.273 329.271C952.472 330.249 955.76 330.738 959.137 330.738C969.624 330.738 977.933 328.738 984.064 324.739C990.196 320.651 994.595 315.186 997.261 308.343C1000.02 301.412 1001.39 293.725 1001.39 285.282ZM1119.5 204.769V223.697H1041.52V204.769H1119.5ZM1067.91 169.71H1092.57V313.275C1092.57 318.163 1093.33 321.851 1094.84 324.339C1096.35 326.828 1098.3 328.472 1100.7 329.271C1103.1 330.071 1105.68 330.471 1108.43 330.471C1110.48 330.471 1112.61 330.293 1114.83 329.938C1117.14 329.494 1118.88 329.138 1120.03 328.872L1120.16 349C1118.21 349.622 1115.63 350.2 1112.43 350.733C1109.32 351.355 1105.55 351.666 1101.1 351.666C1095.06 351.666 1089.51 350.466 1084.44 348.067C1079.37 345.667 1075.33 341.668 1072.31 336.07C1069.38 330.382 1067.91 322.74 1067.91 313.142V169.71Z" fill="white"/>
</svg>
