<svg width="1011" height="300" viewBox="0 0 1011 300" fill="none" xmlns="http://www.w3.org/2000/svg">
<g clip-path="url(#clip0_21_161)">
<rect width="300" height="300" rx="50" fill="#C15F3C"/>
<path d="M444.585 193.484C444.585 189.002 443.882 185.047 442.476 181.619C441.157 178.104 438.784 174.939 435.356 172.127C432.017 169.314 427.358 166.634 421.382 164.085C415.493 161.536 408.022 158.943 398.97 156.307C389.478 153.494 380.908 150.374 373.262 146.946C365.615 143.431 359.067 139.432 353.618 134.949C348.169 130.467 343.994 125.325 341.094 119.524C338.193 113.724 336.743 107.088 336.743 99.6172C336.743 92.1465 338.281 85.2471 341.357 78.9189C344.434 72.5908 348.828 67.0977 354.541 62.4395C360.342 57.6934 367.241 54.002 375.239 51.3652C383.237 48.7285 392.158 47.4102 402.002 47.4102C416.416 47.4102 428.633 50.1787 438.652 55.7158C448.76 61.165 456.45 68.3281 461.724 77.2051C466.997 85.9941 469.634 95.3984 469.634 105.418H444.321C444.321 98.2109 442.783 91.8389 439.707 86.3018C436.631 80.6768 431.973 76.2822 425.732 73.1182C419.492 69.8662 411.582 68.2402 402.002 68.2402C392.949 68.2402 385.479 69.6025 379.59 72.3271C373.701 75.0518 369.307 78.7432 366.406 83.4014C363.594 88.0596 362.188 93.377 362.188 99.3535C362.188 103.396 363.022 107.088 364.692 110.428C366.45 113.68 369.131 116.712 372.734 119.524C376.426 122.337 381.084 124.93 386.709 127.303C392.422 129.676 399.233 131.961 407.144 134.158C418.042 137.234 427.446 140.662 435.356 144.441C443.267 148.221 449.771 152.483 454.868 157.229C460.054 161.888 463.877 167.205 466.338 173.182C468.887 179.07 470.161 185.75 470.161 193.221C470.161 201.043 468.579 208.118 465.415 214.446C462.251 220.774 457.725 226.18 451.836 230.662C445.947 235.145 438.872 238.616 430.61 241.077C422.437 243.45 413.296 244.637 403.188 244.637C394.312 244.637 385.566 243.406 376.953 240.945C368.428 238.484 360.649 234.793 353.618 229.871C346.675 224.949 341.094 218.885 336.875 211.678C332.744 204.383 330.679 195.945 330.679 186.365H355.991C355.991 192.957 357.266 198.626 359.814 203.372C362.363 208.03 365.835 211.897 370.229 214.974C374.712 218.05 379.766 220.335 385.391 221.829C391.104 223.235 397.036 223.938 403.188 223.938C412.065 223.938 419.58 222.708 425.732 220.247C431.885 217.786 436.543 214.271 439.707 209.7C442.959 205.13 444.585 199.725 444.585 193.484ZM555.986 224.598C561.787 224.598 567.148 223.411 572.07 221.038C576.992 218.665 581.035 215.413 584.199 211.282C587.363 207.063 589.165 202.273 589.604 196.912H612.808C612.368 205.35 609.512 213.216 604.238 220.511C599.053 227.718 592.241 233.562 583.804 238.045C575.366 242.439 566.094 244.637 555.986 244.637C545.264 244.637 535.903 242.747 527.905 238.968C519.995 235.188 513.403 230.003 508.13 223.411C502.944 216.819 499.033 209.261 496.396 200.735C493.848 192.122 492.573 183.025 492.573 173.445V167.908C492.573 158.328 493.848 149.275 496.396 140.75C499.033 132.137 502.944 124.534 508.13 117.942C513.403 111.351 519.995 106.165 527.905 102.386C535.903 98.6064 545.264 96.7168 555.986 96.7168C567.148 96.7168 576.904 99.002 585.254 103.572C593.604 108.055 600.151 114.207 604.897 122.029C609.731 129.764 612.368 138.553 612.808 148.396H589.604C589.165 142.508 587.495 137.19 584.595 132.444C581.782 127.698 577.915 123.919 572.993 121.106C568.159 118.206 562.49 116.756 555.986 116.756C548.516 116.756 542.231 118.25 537.134 121.238C532.124 124.139 528.125 128.094 525.137 133.104C522.236 138.025 520.127 143.519 518.809 149.583C517.578 155.56 516.963 161.668 516.963 167.908V173.445C516.963 179.686 517.578 185.838 518.809 191.902C520.039 197.967 522.104 203.46 525.005 208.382C527.993 213.304 531.992 217.259 537.002 220.247C542.1 223.147 548.428 224.598 555.986 224.598ZM633.77 172.259V169.227C633.77 158.943 635.264 149.407 638.252 140.618C641.24 131.741 645.547 124.051 651.172 117.547C656.797 110.955 663.608 105.857 671.606 102.254C679.604 98.5625 688.569 96.7168 698.501 96.7168C708.521 96.7168 717.529 98.5625 725.527 102.254C733.613 105.857 740.469 110.955 746.094 117.547C751.807 124.051 756.157 131.741 759.146 140.618C762.134 149.407 763.628 158.943 763.628 169.227V172.259C763.628 182.542 762.134 192.078 759.146 200.867C756.157 209.656 751.807 217.347 746.094 223.938C740.469 230.442 733.657 235.54 725.659 239.231C717.749 242.835 708.784 244.637 698.765 244.637C688.745 244.637 679.736 242.835 671.738 239.231C663.74 235.54 656.885 230.442 651.172 223.938C645.547 217.347 641.24 209.656 638.252 200.867C635.264 192.078 633.77 182.542 633.77 172.259ZM658.159 169.227V172.259C658.159 179.378 658.994 186.102 660.664 192.43C662.334 198.67 664.839 204.207 668.179 209.041C671.606 213.875 675.869 217.698 680.967 220.511C686.064 223.235 691.997 224.598 698.765 224.598C705.444 224.598 711.289 223.235 716.299 220.511C721.396 217.698 725.615 213.875 728.955 209.041C732.295 204.207 734.8 198.67 736.47 192.43C738.228 186.102 739.106 179.378 739.106 172.259V169.227C739.106 162.195 738.228 155.56 736.47 149.319C734.8 142.991 732.251 137.41 728.823 132.576C725.483 127.654 721.265 123.787 716.167 120.975C711.157 118.162 705.269 116.756 698.501 116.756C691.821 116.756 685.933 118.162 680.835 120.975C675.825 123.787 671.606 127.654 668.179 132.576C664.839 137.41 662.334 142.991 660.664 149.319C658.994 155.56 658.159 162.195 658.159 169.227ZM881.489 209.041V99.3535H906.011V242H882.676L881.489 209.041ZM886.104 178.982L896.255 178.719C896.255 188.211 895.244 197 893.223 205.086C891.289 213.084 888.125 220.027 883.73 225.916C879.336 231.805 873.579 236.419 866.46 239.759C859.341 243.011 850.684 244.637 840.488 244.637C833.545 244.637 827.173 243.626 821.372 241.604C815.659 239.583 810.737 236.463 806.606 232.244C802.476 228.025 799.268 222.532 796.982 215.765C794.785 208.997 793.687 200.867 793.687 191.375V99.3535H818.076V191.639C818.076 198.055 818.779 203.372 820.186 207.591C821.68 211.722 823.657 215.018 826.118 217.479C828.667 219.852 831.479 221.521 834.556 222.488C837.72 223.455 840.972 223.938 844.312 223.938C854.683 223.938 862.9 221.961 868.965 218.006C875.029 213.963 879.38 208.558 882.017 201.79C884.741 194.935 886.104 187.332 886.104 178.982ZM1002.91 99.3535V118.074H925.786V99.3535H1002.91ZM951.89 64.6807H976.279V206.668C976.279 211.502 977.026 215.149 978.521 217.61C980.015 220.071 981.948 221.697 984.321 222.488C986.694 223.279 989.243 223.675 991.968 223.675C993.989 223.675 996.099 223.499 998.296 223.147C1000.58 222.708 1002.29 222.356 1003.44 222.093L1003.57 242C1001.64 242.615 999.087 243.187 995.923 243.714C992.847 244.329 989.111 244.637 984.717 244.637C978.74 244.637 973.247 243.45 968.237 241.077C963.228 238.704 959.229 234.749 956.24 229.212C953.34 223.587 951.89 216.028 951.89 206.536V64.6807Z" fill="white"/>
<path d="M144.077 42.7534C149.217 42.2848 153.845 43.1172 158.387 45.6204C164.008 48.7432 168.167 53.9618 169.956 60.1383C172.763 70.0589 169.059 79.4705 158.825 82.5847C154.977 83.7554 147.932 85.745 145.947 89.5539C145.378 90.6496 144.946 91.8111 144.661 93.0122C143.599 97.3238 143.06 101.83 142.211 106.197C141.592 109.387 140.525 112.748 140.277 115.969C140.166 117.418 140.345 118.961 140.8 120.342C141.175 121.476 141.825 122.573 142.674 123.417C144.726 125.457 147.637 126.673 149.844 128.792C151.849 130.717 152.953 133.515 155.596 134.74C158.479 136.076 161.898 135.389 164.758 134.359C171.309 132 177.522 128.572 183.742 125.476C190.538 122.094 208.626 114.051 212.742 108.128C214.349 105.815 214.244 103.335 214.75 100.688C215.078 99.0045 215.62 97.37 216.363 95.824C217.576 93.2763 219.288 90.9979 221.398 89.124C223.508 87.25 225.973 85.8186 228.646 84.9144C231.409 83.9476 234.337 83.5383 237.26 83.7103C240.182 83.8823 243.042 84.6322 245.673 85.9165C257.395 91.7139 261.556 107.444 255.921 118.868C251.224 128.446 238.709 130.262 229.91 125.511C226.03 123.489 222.475 120.552 217.849 120.756C212.034 121.013 206.496 124.815 201.499 127.514C196.923 129.981 192.292 132.342 187.608 134.596C183.164 136.755 178.56 138.709 174.038 140.702C171.422 141.888 168.768 142.865 166.242 144.252C163.16 145.945 161.523 148.789 162.925 152.239C163.845 154.503 165.27 156.83 167.625 157.795C169.734 158.66 172.083 158.89 174.331 159.16C187.575 160.407 200.903 161.129 214.161 162.202C219.674 162.644 225.185 163.121 230.692 163.63C235.939 164.122 243.624 165.261 248.727 164.815C251.844 164.542 253.668 160.709 255.704 158.691C257.53 156.907 259.713 155.53 262.11 154.651C278.218 148.596 292.029 164.794 285.516 179.984C280.626 191.389 263.702 193.087 256.395 183.128C253.931 179.766 252.719 175.533 248.63 173.855C246.155 172.81 243.821 172.481 241.139 172.271C235.474 171.85 229.681 172.105 223.983 172.007C212.449 171.831 200.92 171.392 189.405 170.69C185.084 170.394 180.771 169.997 176.469 169.499C173.249 169.115 169.96 168.655 166.788 168.475C158.686 168.015 159.46 173.952 155.222 178.398C151.398 182.171 146.62 183.707 149.701 190.144C152.212 195.205 154.463 200.385 156.809 205.515C158.707 209.666 161.323 216.372 165.281 218.797C167.847 220.369 172.315 220.492 175.402 221.807C181.201 224.278 183.959 228.142 186.379 233.879C186.92 235.66 187.318 237.37 187.394 239.237C187.484 241.509 187.124 243.776 186.334 245.908C185.545 248.04 184.342 249.995 182.795 251.66C179.239 255.464 174.43 257.232 169.285 257.364C163.81 257.505 158.501 255.475 154.517 251.716C149.338 246.77 147.465 239.305 150.389 232.703C152.347 228.365 155.399 226.023 153.576 220.884C151.381 214.697 147.73 209.246 145.197 203.196C144.601 201.773 144.13 200.505 143.611 199.06C142.691 196.656 142.047 193.399 139.988 191.659C134.839 187.311 127.885 190.642 121.707 189.369C118.641 188.737 113.1 186.059 110.736 186.445C102.208 187.84 97.2109 199.127 91.1492 204.558C85.5112 209.909 80.5811 214.293 75.2753 219.72C73.1459 221.942 69.0564 228.071 70.2509 231.51C74.4355 243.559 67.3415 254.413 54.1749 255.596C43.0525 256.596 31.3273 246.812 30.7691 234.787C30.6511 232.299 31.0305 229.812 31.885 227.472C32.7395 225.133 34.0519 222.987 35.7456 221.16C40.4001 216.155 46.9744 213.992 53.6134 215.64C57.3893 216.577 60.4849 218.379 63.708 215.155C65.9665 212.896 68.0849 210.409 70.1891 208.006L81.7993 194.749C84.9784 191.172 88.2155 187.647 91.5094 184.175C94.1646 181.365 97.1201 179.241 98.0671 175.361C99.3988 170.274 96.2836 166.167 94.5804 161.636C92.2849 155.53 91.8334 149.281 93.2888 142.911C94.2748 138.597 96.8589 134.933 93.0061 131.128C91.3068 129.45 89.5131 127.982 87.7021 126.398C84.8352 123.894 82.0186 121.333 79.254 118.716C76.115 115.736 73.0361 112.692 70.0192 109.588C64.3062 103.774 60.191 98.0088 51.2837 99.7163C41.3869 101.614 31.4048 93.0247 30.4203 83.1755C30.2111 81.1178 30.4157 79.0391 31.022 77.0616C31.6284 75.0842 32.6242 73.248 33.9509 71.6613C35.4153 69.8839 37.2173 68.4143 39.2528 67.3371C41.2883 66.2599 43.517 65.5965 45.8103 65.3852C47.8764 65.1801 49.9626 65.3874 51.948 65.995C53.9333 66.6027 55.7782 67.5986 57.3756 68.9249C63.0898 73.7205 63.9154 80.2402 63.5661 87.2152C63.3944 90.6452 68.1592 95.0411 70.3833 97.3968C78.8269 106.189 87.8376 114.419 97.3574 122.034C102.573 126.25 103.531 125.35 109.107 122.008C113.223 119.542 117.202 119.627 121.778 119.562C124.065 119.529 126.355 117.823 127.763 116.047C131.208 111.702 132.01 106.202 133.026 100.922C133.907 96.073 135.077 89.9998 134.662 85.0815C134.378 80.1489 130.549 77.8577 127.813 74.3415C122.487 67.4955 122.639 57.3995 128.092 50.6711C132.087 45.7431 137.967 43.4652 144.077 42.7534Z" fill="white"/>
</g>
<defs>
<clipPath id="clip0_21_161">
<rect width="1011" height="300" fill="white"/>
</clipPath>
</defs>
</svg>
